<?xml version="1.0" standalone="no"?>
<!DOCTYPE svg PUBLIC "-//W3C//DTD SVG 20010904//EN"
 "http://www.w3.org/TR/2001/REC-SVG-20010904/DTD/svg10.dtd">
<svg version="1.0" xmlns="http://www.w3.org/2000/svg"
 width="1280.000000pt" height="1076.000000pt" viewBox="0 0 1280.000000 1076.000000"
 preserveAspectRatio="xMidYMid meet">
<metadata>
Created by potrace 1.15, written by Peter Selinger 2001-2017
</metadata>
<g transform="translate(0.000000,1076.000000) scale(0.100000,-0.100000)"
fill="#000000" stroke="none">
<path d="M320 10705 c6 -41 -2 -63 -12 -33 -3 7 -8 -33 -11 -90 -7 -98 -2
-138 29 -244 4 -13 1 -16 -11 -12 -14 6 -14 2 1 -37 10 -24 39 -75 66 -113 26
-38 45 -73 42 -77 -8 -14 246 -297 337 -375 222 -190 496 -331 721 -370 70
-12 132 -15 248 -11 256 8 448 52 659 154 210 100 711 380 820 458 135 97 386
188 645 235 360 65 717 -49 978 -311 97 -98 118 -131 118 -189 l0 -46 -95 -12
c-102 -13 -239 -53 -366 -107 -89 -38 -321 -166 -419 -231 -173 -114 -427
-352 -572 -534 -75 -95 -170 -191 -240 -243 l-36 -28 -81 31 c-111 43 -155 80
-229 190 -35 52 -84 117 -110 143 -70 73 -209 167 -246 167 -41 0 -156 -40
-153 -53 1 -7 -9 -13 -23 -15 -14 -2 -46 -10 -72 -18 l-47 -15 -38 43 c-133
150 -142 158 -196 158 -97 0 -260 -112 -347 -239 -52 -77 -170 -188 -261 -248
-73 -47 -81 -50 -195 -66 -191 -26 -349 -40 -375 -34 -13 4 -60 29 -103 56
-49 31 -99 54 -132 61 -30 6 -75 23 -100 37 -113 63 -261 -20 -280 -158 -5
-40 -1 -54 40 -132 l45 -87 -42 0 c-48 0 -108 -25 -153 -63 -17 -14 -42 -29
-57 -32 -47 -12 -62 -49 -61 -150 0 -115 16 -149 99 -215 76 -60 120 -80 178
-80 24 0 90 -7 148 -16 77 -12 143 -15 254 -10 176 6 276 28 372 82 84 47 336
214 475 315 61 44 121 85 134 89 36 14 233 33 286 28 54 -6 64 -15 104 -97 33
-69 52 -130 65 -216 28 -186 87 -365 150 -460 125 -186 338 -319 634 -394 226
-57 352 -74 525 -69 344 11 641 -19 781 -77 93 -39 209 -101 244 -130 l30 -25
-27 10 c-18 6 -28 6 -28 0 0 -6 5 -10 11 -10 11 0 399 -381 399 -392 0 -3 -12
-3 -27 0 -25 5 -22 -1 34 -61 50 -54 77 -96 137 -219 41 -84 73 -154 71 -156
-2 -2 -20 8 -39 23 -20 15 -36 25 -36 21 0 -3 15 -27 34 -53 18 -27 63 -103
100 -170 37 -67 93 -158 125 -203 110 -154 303 -370 426 -477 218 -191 592
-458 890 -638 189 -114 567 -292 830 -390 168 -62 407 -192 553 -299 69 -51
152 -148 219 -253 l45 -73 19 -222 c10 -123 23 -276 29 -340 18 -202 73 -331
190 -443 79 -76 242 -263 324 -372 40 -54 164 -201 275 -328 469 -533 593
-718 807 -1204 49 -112 68 -144 120 -200 34 -36 79 -75 100 -86 24 -13 54 -44
81 -85 62 -92 89 -117 152 -141 71 -27 150 -23 185 10 19 18 27 20 50 11 15
-5 56 -10 91 -10 56 0 66 3 83 25 18 23 23 24 90 18 84 -7 125 6 141 45 8 18
27 33 57 46 57 23 110 17 205 -24 77 -34 203 -60 292 -60 48 0 64 -5 99 -30
75 -54 181 -74 238 -45 37 19 55 53 70 133 l13 62 -39 76 c-36 72 -43 78 -94
101 -30 14 -74 44 -96 68 -45 46 -99 65 -192 65 -61 1 -84 7 -297 82 -201 70
-268 109 -394 225 -209 191 -603 706 -702 918 -69 147 -129 357 -169 588 -25
151 -25 227 0 306 28 85 140 345 254 594 122 264 142 333 161 551 15 173 17
190 37 306 13 79 49 159 92 204 26 28 41 35 89 41 120 15 250 -15 355 -81 48
-31 72 -61 37 -48 -8 4 -15 1 -15 -5 0 -5 18 -16 40 -22 22 -7 45 -18 51 -26
9 -10 5 -13 -22 -14 -21 -1 -26 -3 -14 -6 88 -20 97 -24 85 -39 -11 -12 -7
-14 22 -14 32 0 151 -51 192 -82 17 -14 5 -16 -120 -20 -140 -6 -234 -22 -234
-41 0 -6 17 -7 48 -3 122 18 243 26 302 20 51 -5 80 -16 139 -50 l73 -43 -38
-6 c-81 -13 -100 -18 -132 -31 -50 -20 -30 -34 25 -18 27 8 82 17 123 20 l75
6 70 -47 c86 -58 82 -54 66 -64 -7 -5 -10 -14 -6 -20 5 -9 10 -9 20 -1 11 9
24 -2 61 -52 26 -35 59 -91 75 -125 25 -57 49 -81 49 -52 0 6 24 -25 54 -70
42 -64 55 -78 61 -64 6 16 8 16 26 -6 10 -13 19 -29 19 -37 0 -8 6 -11 15 -8
9 4 15 0 15 -9 0 -11 6 -13 22 -9 14 3 19 2 14 -6 -9 -15 -1 -15 24 -2 13 7
31 5 62 -6 59 -21 149 -11 187 22 16 13 38 48 50 78 l22 53 58 6 c32 2 75 14
97 25 82 43 164 161 164 238 0 21 5 52 12 70 18 52 -14 146 -120 354 -104 204
-106 208 -87 366 19 169 -84 394 -298 651 -100 120 -188 198 -297 262 -91 55
-154 120 -197 206 -43 85 -72 86 -113 4 -25 -48 -35 -59 -48 -54 -9 4 -37 14
-62 22 -32 11 -70 40 -130 98 -47 45 -100 92 -118 105 -19 12 -54 54 -78 92
-31 49 -50 68 -62 66 -15 -3 -17 -17 -15 -111 1 -89 -1 -107 -14 -107 -8 0
-55 27 -105 60 -107 71 -142 84 -408 160 -503 144 -608 198 -880 455 -222 209
-306 255 -552 305 -120 25 -132 29 -225 86 -180 109 -439 189 -747 229 -137
18 -176 35 -396 181 -226 149 -474 365 -623 542 -181 215 -409 536 -498 702
-192 357 -363 646 -457 772 -86 116 -328 295 -547 405 -132 65 -192 120 -299
271 -41 59 -92 112 -183 190 -330 283 -548 414 -779 468 -110 26 -407 26 -549
0 -428 -78 -900 -266 -1241 -495 -232 -155 -513 -291 -676 -327 -145 -32 -363
-18 -518 33 -94 31 -268 122 -347 182 -107 81 -222 206 -267 289 -19 37 -36
61 -36 55 0 -28 -21 -9 -69 65 -129 196 -189 270 -210 258 -4 -3 -36 21 -70
53 l-63 59 6 -36 5 -35 -39 38 c-21 20 -41 48 -44 61 -11 42 -23 26 -16 -21z"/>
</g>
</svg>
